<svg width="138" height="176" viewBox="0 0 138 176" fill="none" xmlns="http://www.w3.org/2000/svg">
<path d="M91.4796 8.38712C89.5592 10.3075 86.4533 10.3075 84.5329 8.38712C82.6126 6.46673 82.6126 3.36069 84.5329 1.4403C86.4533 -0.480099 89.5592 -0.480099 91.4796 1.4403C93.3999 3.36069 93.3999 6.46673 91.4796 8.38712ZM112.253 22.214C110.332 20.2936 107.226 20.2936 105.306 22.214C103.386 24.1344 103.386 27.2404 105.306 29.1608C107.226 31.0812 110.332 31.0812 112.253 29.1608C114.173 27.2404 114.173 24.1344 112.253 22.214ZM133.026 42.9876C131.106 41.0672 128 41.0672 126.079 42.9876C124.159 44.908 124.159 48.014 126.079 49.9344C128 51.8548 131.106 51.8548 133.026 49.9344C134.946 48.014 134.946 44.908 133.026 42.9876ZM153.799 63.7613C151.879 61.8409 148.773 61.8409 146.852 63.7613C144.932 65.6817 144.932 68.7877 146.852 70.7081C148.773 72.6285 151.879 72.6285 153.799 70.7081C155.719 68.7877 155.719 65.6817 153.799 63.7613ZM174.572 84.5349C172.652 82.6145 169.546 82.6145 167.626 84.5349C165.705 86.4553 165.705 89.5614 167.626 91.4818C169.546 93.4022 172.652 93.4022 174.572 91.4818C176.476 89.5614 176.476 86.4553 174.572 84.5349ZM70.7064 22.214C68.7861 20.2936 65.6801 20.2936 63.7598 22.214C61.8394 24.1344 61.8394 27.2404 63.7598 29.1608C65.6801 31.0812 68.7861 31.0812 70.7064 29.1608C72.6268 27.2404 72.6268 24.1344 70.7064 22.214ZM91.4796 42.9876C89.5592 41.0672 86.4533 41.0672 84.5329 42.9876C82.6126 44.908 82.6126 48.014 84.5329 49.9344C86.4533 51.8548 89.5592 51.8548 91.4796 49.9344C93.3999 48.014 93.3999 44.908 91.4796 42.9876ZM112.253 63.7613C110.332 61.8409 107.226 61.8409 105.306 63.7613C103.386 65.6817 103.386 68.7877 105.306 70.7081C107.226 72.6285 110.332 72.6285 112.253 70.7081C114.173 68.7877 114.173 65.6817 112.253 63.7613ZM133.026 84.5349C131.106 82.6145 128 82.6145 126.079 84.5349C124.159 86.4553 124.159 89.5614 126.079 91.4818C128 93.4022 131.106 93.4022 133.026 91.4818C134.946 89.5614 134.946 86.4553 133.026 84.5349ZM153.799 105.309C151.879 103.388 148.773 103.388 146.852 105.309C144.932 107.229 144.932 110.335 146.852 112.255C148.773 114.176 151.879 114.176 153.799 112.255C155.719 110.335 155.719 107.229 153.799 105.309ZM49.9333 42.9876C48.0129 41.0672 44.9069 41.0672 42.9866 42.9876C41.0662 44.908 41.0662 48.014 42.9866 49.9344C44.9069 51.8548 48.0129 51.8548 49.9333 49.9344C51.8536 48.014 51.8536 44.908 49.9333 42.9876ZM70.7064 63.7613C68.7861 61.8409 65.6801 61.8409 63.7598 63.7613C61.8394 65.6817 61.8394 68.7877 63.7598 70.7081C65.6801 72.6285 68.7861 72.6285 70.7064 70.7081C72.6268 68.7877 72.6268 65.6817 70.7064 63.7613ZM91.4796 84.5349C89.5592 82.6145 86.4533 82.6145 84.5329 84.5349C82.6126 86.4553 82.6126 89.5614 84.5329 91.4818C86.4533 93.4022 89.5592 93.4022 91.4796 91.4818C93.3999 89.5614 93.3999 86.4553 91.4796 84.5349ZM112.253 105.309C110.332 103.388 107.226 103.388 105.306 105.309C103.386 107.229 103.386 110.335 105.306 112.255C107.226 114.176 110.332 114.176 112.253 112.255C114.173 110.335 114.173 107.229 112.253 105.309ZM133.026 126.082C131.106 124.162 128 124.162 126.079 126.082C124.159 128.003 124.159 131.109 126.079 133.029C128 134.949 131.106 134.949 133.026 133.029C134.946 131.109 134.946 127.986 133.026 126.082ZM29.1601 63.7613C27.2397 61.8409 24.1338 61.8409 22.2134 63.7613C20.2931 65.6817 20.2931 68.7877 22.2134 70.7081C24.1338 72.6285 27.2397 72.6285 29.1601 70.7081C31.0804 68.7877 31.0804 65.6817 29.1601 63.7613ZM49.9333 84.5349C48.0129 82.6145 44.9069 82.6145 42.9866 84.5349C41.0662 86.4553 41.0662 89.5614 42.9866 91.4818C44.9069 93.4022 48.0129 93.4022 49.9333 91.4818C51.8536 89.5614 51.8536 86.4553 49.9333 84.5349ZM70.7064 105.309C68.7861 103.388 65.6801 103.388 63.7598 105.309C61.8394 107.229 61.8394 110.335 63.7598 112.255C65.6801 114.176 68.7861 114.176 70.7064 112.255C72.6268 110.335 72.6268 107.229 70.7064 105.309ZM91.4796 126.082C89.5592 124.162 86.4533 124.162 84.5329 126.082C82.6126 128.003 82.6126 131.109 84.5329 133.029C86.4533 134.949 89.5592 134.949 91.4796 133.029C93.3999 131.109 93.3999 127.986 91.4796 126.082ZM112.253 146.856C110.332 144.936 107.226 144.936 105.306 146.856C103.386 148.776 103.386 151.882 105.306 153.803C107.226 155.723 110.332 155.723 112.253 153.803C114.173 151.882 114.173 148.76 112.253 146.856ZM8.38691 84.5349C6.46656 82.6145 3.36061 82.6145 1.44026 84.5349C-0.480087 86.4553 -0.480087 89.5614 1.44026 91.4818C3.36061 93.4022 6.46656 93.4022 8.38691 91.4818C10.3073 89.5614 10.3073 86.4553 8.38691 84.5349ZM29.1601 105.309C27.2397 103.388 24.1338 103.388 22.2134 105.309C20.2931 107.229 20.2931 110.335 22.2134 112.255C24.1338 114.176 27.2397 114.176 29.1601 112.255C31.0804 110.335 31.0804 107.229 29.1601 105.309ZM49.9333 126.082C48.0129 124.162 44.9069 124.162 42.9866 126.082C41.0662 128.003 41.0662 131.109 42.9866 133.029C44.9069 134.949 48.0129 134.949 49.9333 133.029C51.8536 131.109 51.8536 127.986 49.9333 126.082ZM70.7064 146.856C68.7861 144.936 65.6801 144.936 63.7598 146.856C61.8394 148.776 61.8394 151.882 63.7598 153.803C65.6801 155.723 68.7861 155.723 70.7064 153.803C72.6268 151.882 72.6268 148.76 70.7064 146.856ZM91.4796 167.613C89.5592 165.692 86.4533 165.692 84.5329 167.613C82.6126 169.533 82.6126 172.639 84.5329 174.56C86.4533 176.48 89.5592 176.48 91.4796 174.56C93.3999 172.656 93.3999 169.533 91.4796 167.613Z" fill="black" fill-opacity="0.1"/>
</svg>
